PathFileType	3	(X/Y/Z)	C:\Users\koon_\Desktop\
DataRate	CameraRate	NumFrames	NumMarkers	Units	OrigDataRate	OrigDataStartFrame	OrigNumFrames
100.0	100.0	10	27	mm	100.0	2156	2463	
Frame#	Time	get:LFHD			get:RFHD			get:LBHD			get:RBHD			get:C7			get:T10			get:CLAV			get:STRN			get:RBAK			get:LSHO			get:LUPA			get:LELB			get:LFRA			get:LWRA			get:LWRB			get:LFIN			get:RSHO			get:RUPA			get:RELB			get:RFRA			get:RWRA			get:RWRB			get:RFIN			get:LASI			get:RASI			get:LPSI			get:RPSI			
		X1	Y1	Z1	X2	Y2	Z2	X3	Y3	Z3	X4	Y4	Z4	X5	Y5	Z5	X6	Y6	Z6	X7	Y7	Z7	X8	Y8	Z8	X9	Y9	Z9	X10	Y10	Z10	X11	Y11	Z11	X12	Y12	Z12	X13	Y13	Z13	X14	Y14	Z14	X15	Y15	Z15	X16	Y16	Z16	X17	Y17	Z17	X18	Y18	Z18	X19	Y19	Z19	X20	Y20	Z20	X21	Y21	Z21	X22	Y22	Z22	X23	Y23	Z23	X24	Y24	Z24	X25	Y25	Z25	X26	Y26	Z26	X27	Y27	Z27	
2156	21.55	134.23825	1549.4956	-152.06502	-6.987762	1548.6392	-149.231	107.83747	1551.8436	-312.31042	-22.51911	1526.3907	-312.70197	63.637226	1326.3131	-343.9754	53.878387	1115.1705	-378.51453	63.790054	1270.5894	-149.63609	68.522675	1071.864	-102.68885	-14.515423	1250.5454	-372.19525	200.00471	1338.1946	-272.74133	288.8728	1196.8206	-262.49683	324.65598	1003.9102	-288.65442	351.38736	885.87415	-215.38733	340.90274	810.32574	-179.71683	356.28381	801.27344	-265.76422	403.88013	742.3479	-201.09409	-73.117897	1328.9435	-264.09271	-178.67313	1119.0715	-217.50294	-200.84615	1007.1636	-283.45981	-231.948	964.3291	-201.21188	-258.54764	821.12195	-159.34341	-260.99701	809.05933	-241.57686	-319.85687	754.32654	-175.76334	192.16109	881.47217	-144.81673	-76.229721	872.15002	-137.18578	92.392929	934.73645	-360.63144	2.0023596	934.34015	-360.20334
2157	21.56	134.33983	1549.493	-151.91614	-6.8888764	1548.6354	-149.24211	108.00159	1551.8593	-312.22598	-22.378357	1526.4518	-312.60364	63.783138	1326.3599	-343.99673	54.064762	1115.2426	-378.63345	63.838207	1270.5535	-149.68964	68.596779	1071.7875	-102.86362	-14.367956	1250.5765	-372.17343	200.12633	1338.2406	-272.66605	289.01334	1196.8898	-262.34805	324.89127	1004.0079	-288.56104	351.58212	885.95166	-215.24342	341.0957	810.39886	-179.61198	356.586	801.38318	-265.65103	404.14215	742.47949	-200.92424	-72.97226	1328.9866	-264.16635	-178.63637	1119.1127	-217.68669	-200.84476	1007.2343	-283.71875	-231.9175	964.40411	-201.36301	-258.67569	821.26257	-159.45709	-261.10022	809.21265	-241.79068	-320.07028	754.46405	-175.95943	192.33778	881.44373	-145.04543	-76.046402	872.11572	-137.4576	92.558929	934.76917	-360.81967	2.2174635	934.37659	-360.41745
2158	21.57	134.42281	1549.4562	-151.82373	-6.7925148	1548.6169	-149.22144	108.12997	1551.8766	-312.18826	-22.270193	1526.4764	-312.58151	63.953423	1326.4167	-343.94864	54.240414	1115.2556	-378.65524	63.927532	1270.5361	-149.73253	68.709824	1071.7389	-102.92555	-14.176113	1250.6025	-372.2189	200.24969	1338.2626	-272.57684	289.15976	1196.9584	-262.21805	325.09427	1004.0567	-288.41861	351.78223	886.05328	-215.08839	341.28436	810.47772	-179.55113	356.90552	801.48438	-265.57092	404.37814	742.57349	-200.83325	-72.878136	1328.9846	-264.21445	-178.56235	1119.0902	-217.92261	-200.77364	1007.2826	-283.95496	-231.93829	964.49878	-201.62933	-258.83487	821.37042	-159.86121	-261.23102	809.30481	-242.01915	-320.25699	754.63794	-176.21805	192.51149	881.41467	-145.21799	-75.865532	872.08228	-137.67863	92.763779	934.81635	-360.98318	2.3828759	934.45856	-360.63098
2159	21.58	134.52667	1549.4003	-151.7556	-6.6716008	1548.629	-149.1935	108.31126	1551.8807	-312.11456	-22.11775	1526.4855	-312.59033	64.12722	1326.4587	-343.9505	54.419846	1115.3092	-378.76184	63.973473	1270.4669	-149.71509	68.781021	1071.707	-103.12537	-14.015868	1250.6519	-372.28241	200.34914	1338.2769	-272.49146	289.30103	1197.0038	-262.08798	325.3371	1004.1373	-288.31412	351.98914	886.09442	-215.00275	341.49872	810.50708	-179.48952	357.16821	801.54144	-265.46222	404.69101	742.66461	-200.66893	-72.738014	1328.972	-264.20444	-178.46991	1119.1085	-218.06529	-200.72264	1007.2969	-284.22379	-232.01575	964.5882	-202.04037	-258.89792	821.461	-159.97946	-261.28799	809.33728	-242.16479	-320.35553	754.74243	-176.41002	192.68301	881.39014	-145.42534	-75.681541	872.0235	-137.98363	92.943108	934.84875	-361.2002	2.5734181	934.49799	-360.84805
2160	21.59	134.69136	1549.3766	-151.74561	-6.5843477	1548.6252	-149.19568	108.45128	1551.8217	-312.08649	-21.961473	1526.4835	-312.55624	64.300865	1326.4939	-343.97739	54.565018	1115.3672	-378.82449	64.062584	1270.4434	-149.72304	68.868706	1071.6729	-103.24507	-13.845508	1250.6974	-372.35361	200.47891	1338.3081	-272.43155	289.45148	1197.0527	-261.96689	325.29376	1004.1827	-288.23422	352.25116	886.16467	-214.90396	341.76489	810.57104	-179.39713	357.47391	801.60913	-265.35376	404.96295	742.74951	-200.56609	-72.595482	1328.951	-264.22177	-178.37105	1119.1035	-218.29544	-200.6219	1007.3	-284.39844	-231.93802	964.56982	-202.12639	-258.96411	821.53699	-160.40413	-261.32095	809.36316	-242.33034	-320.44775	754.81506	-176.57971	192.85016	881.32715	-145.59651	-75.526642	871.96448	-138.2655	93.093536	934.89941	-361.31894	2.7446806	934.56555	-361.04437
2161	21.6	134.75139	1549.3831	-151.72542	-6.474175	1548.6206	-149.17271	108.5991	1551.8093	-312.09283	-21.804182	1526.4608	-312.53555	64.4645	1326.5123	-343.96729	54.741619	1115.4104	-378.88895	64.115356	1270.3718	-149.69029	68.97052	1071.5806	-103.38008	-13.707026	1250.6948	-372.34204	200.59682	1338.3223	-272.3609	289.61539	1197.0859	-261.87924	325.78638	1004.2448	-288.07565	352.5386	886.21851	-214.82814	342.04025	810.59515	-179.30296	357.73343	801.6601	-265.28375	405.32288	742.83545	-200.48682	-72.498894	1328.9614	-264.24213	-178.28032	1119.0532	-218.43617	-200.49301	1007.3093	-284.68741	-231.82501	964.56934	-202.31424	-258.9072	821.54749	-160.14978	-261.2709	809.41809	-242.61934	-320.47168	754.90637	-176.84216	193.01195	881.25513	-145.84859	-75.377533	871.90564	-138.44688	93.277061	934.94812	-361.50348	2.9256146	934.57312	-361.20767
2162	21.61	134.86086	1549.3561	-151.67145	-6.3274469	1548.6467	-149.19926	108.74033	1551.7933	-312.07266	-21.650389	1526.4103	-312.49829	64.587051	1326.5496	-343.9541	54.898514	1115.4481	-378.95618	64.255341	1270.309	-149.7175	69.072601	1071.4778	-103.44067	-13.53865	1250.754	-372.396	200.73415	1338.3358	-272.29855	289.74026	1197.0967	-261.72131	326.04614	1004.293	-287.98059	352.83365	886.28571	-214.71324	342.37497	810.67487	-179.21162	358.0011	801.73035	-265.1835	405.62598	742.91748	-200.40048	-72.382874	1328.9651	-264.31555	-178.17401	1119.0103	-218.65633	-200.40495	1007.2675	-284.84317	-231.75618	964.5625	-202.60728	-258.87744	821.53857	-160.37006	-261.17502	809.48682	-242.90135	-320.50134	754.95441	-176.98303	193.16911	881.16449	-146.02895	-75.185242	871.87152	-138.68051	93.449516	934.9632	-361.69278	3.1035171	934.63281	-361.41788
2163	21.62	134.9868	1549.3724	-151.65791	-6.2120113	1548.6898	-149.19765	108.91322	1551.7616	-312.06955	-21.51383	1526.4047	-312.58289	64.713951	1326.5798	-343.93857	55.069817	1115.4862	-378.96704	64.324562	1270.182	-149.66919	69.198219	1071.392	-103.52748	-13.380803	1250.8134	-372.41199	200.87332	1338.3546	-272.1954	289.88492	1197.1208	-261.63782	326.24487	1004.3378	-287.86523	353.09012	886.35217	-214.61841	342.66217	810.71686	-179.11191	358.23993	801.76196	-265.08673	405.94867	743.00043	-200.30519	-72.275383	1328.946	-264.36661	-177.981	1118.963	-218.65279	-200.23514	1007.2648	-285.06235	-231.62247	964.53253	-202.73109	-258.78452	821.55634	-160.52469	-261.08627	809.41235	-243.08467	-320.40164	754.98383	-177.26921	193.32579	881.10852	-146.25926	-75.065178	871.76025	-138.74292	93.581886	935.02679	-361.89352	3.2051747	934.6131	-361.55463
2164	21.63	135.12335	1549.3792	-151.71951	-6.0769715	1548.7407	-149.2368	109.0389	1551.704	-312.0986	-21.381189	1526.4003	-312.63223	64.880386	1326.5865	-343.80908	55.212704	1115.5352	-379.04126	64.443947	1270.1553	-149.70738	69.357231	1071.2925	-103.62391	-13.207216	1250.8545	-372.44281	201.04114	1338.3976	-272.10101	290.00784	1197.1432	-261.54141	326.47446	1004.3783	-287.72629	353.32495	886.37836	-214.52736	342.93112	810.78436	-178.96275	358.55847	801.80371	-264.98376	406.26239	743.13104	-200.22559	-72.098801	1328.9243	-264.36124	-177.88573	1118.9275	-218.82573	-200.10384	1007.2449	-285.15839	-231.49474	964.48846	-202.94415	-258.62402	821.48694	-160.7571	-260.9769	809.38739	-243.27002	-320.30933	754.90381	-177.38808	193.45016	881.08362	-146.45845	-74.910942	871.72803	-138.97935	93.754776	935.04285	-362.08191	3.3995156	934.68176	-361.81238
2165	21.64	135.26134	1549.4105	-151.74088	-5.9445438	1548.7915	-149.2766	109.21884	1551.6337	-312.14655	-21.213013	1526.3909	-312.65305	65.057709	1326.7024	-343.89304	55.408249	1115.6095	-379.13089	64.610413	1270.079	-149.63896	69.484306	1071.2144	-103.7194	-13.042411	1250.9363	-372.52872	201.20763	1338.4547	-272.0325	290.19284	1197.1731	-261.44617	326.72385	1004.4286	-287.6514	353.51752	886.44409	-214.41859	343.13785	810.84247	-178.86015	358.81186	801.90399	-264.83658	406.59247	743.24371	-200.03908	-71.968025	1328.8865	-264.27701	-177.75874	1118.847	-219.10721	-199.91687	1007.2042	-285.32785	-231.31979	964.41907	-203.03598	-258.49115	821.38141	-161.09561	-260.78909	809.32843	-243.47153	-320.08914	754.80011	-177.72156	193.63194	881.04688	-146.61497	-74.774101	871.69067	-139.19734	93.890144	935.06964	-362.29462	3.5652764	934.75787	-362.06689
